<?xml version="1.0" encoding="UTF-8" standalone="no"?>
<svg
   xmlns:dc="http://purl.org/dc/elements/1.1/"
   xmlns:cc="http://creativecommons.org/ns#"
   xmlns:rdf="http://www.w3.org/1999/02/22-rdf-syntax-ns#"
   xmlns:svg="http://www.w3.org/2000/svg"
   xmlns="http://www.w3.org/2000/svg"
   xmlns:sodipodi="http://sodipodi.sourceforge.net/DTD/sodipodi-0.dtd"
   xmlns:inkscape="http://www.inkscape.org/namespaces/inkscape"
   viewBox="0 0 600 600"
   version="1.1"
   id="svg12"
   sodipodi:docname="logo_cloud.svg"
   inkscape:version="0.92.4 (f8dce91, 2019-08-02)"
   inkscape:export-filename="/home/navid/AVISA/graphics/logo/logo_cloud.png"
   inkscape:export-xdpi="96"
   inkscape:export-ydpi="96">
  <metadata
     id="metadata18">
    <rdf:RDF>
      <cc:Work
         rdf:about="">
        <dc:format>image/svg+xml</dc:format>
        <dc:type
           rdf:resource="http://purl.org/dc/dcmitype/StillImage" />
      </cc:Work>
    </rdf:RDF>
  </metadata>
  <defs
     id="defs16" />
  <sodipodi:namedview
     pagecolor="#ffffff"
     bordercolor="#666666"
     borderopacity="1"
     objecttolerance="10"
     gridtolerance="10"
     guidetolerance="10"
     inkscape:pageopacity="0"
     inkscape:pageshadow="2"
     inkscape:window-width="1366"
     inkscape:window-height="708"
     id="namedview14"
     showgrid="false"
     inkscape:zoom="0.39333333"
     inkscape:cx="172.71955"
     inkscape:cy="348.36826"
     inkscape:window-x="0"
     inkscape:window-y="0"
     inkscape:window-maximized="1"
     inkscape:current-layer="svg12" />
  <title
     id="title2">logo</title>
  <rect
     width="600"
     height="600"
     ry="112"
     fill="#01b4df"
     id="rect4"
     style="fill:#0060ff;fill-opacity:1"
     inkscape:export-xdpi="96"
     inkscape:export-ydpi="96" />
  <path
     d="m 237.63228,296.38727 c 0,-14.92509 -2.06391,-29.13554 7.42015,-41.71273 8.91259,-11.8192 20.727,-18.54792 36.20733,-18.07987 13.90216,0.42038 27.84012,0.46945 41.73852,-0.009 16.80381,-0.57884 33.33674,11.79969 38.8209,26.57092 a 55.424711,55.424711 0 0 1 3.55336,20.19537 c -0.0879,13.20024 0.0928,26.40281 -0.0569,39.60193 -0.17907,15.78743 -13.22149,34.21521 -29.48739,38.75234 -16.96698,4.73261 -37.12468,3.55713 -54.56836,2.56711 -12.05205,-0.68402 -21.4201,4.36914 -29.77164,12.05659 -30.99983,28.53446 4.382,80.41895 -31.8307,106.5022 -10.47609,7.54574 -22.23157,8.07596 -35.08049,9.08636 -9.55216,0.12338 -17.04893,0.12338 -26.74891,0.0546 -19.45705,-0.97283 -35.29152,-8.1268 -43.94286,-26.19372 -4.92743,-10.29005 -3.67631,-21.57752 -3.52906,-32.59222 0.14591,-10.91408 -1.53745,-22.40436 0.45601,-33.14966 a 43.781441,43.781441 0 0 1 38.79547,-35.97337 c 14.40665,-1.45833 28.8216,-0.70505 43.22465,-0.70053 21.24878,0.007 34.72382,-10.93111 42.61117,-29.21432 4.59338,-10.64779 1.83842,-26.41234 1.83842,-37.76161 z"
     id="path6"
     inkscape:connector-curvature="0"
     style="fill:#ffffff;stroke-width:1.07096756" />
  <path
     d="m 364.91638,427.13996 c 1.68055,-21.34331 -1.84554,-42.11219 18.25793,-56.28577 a 42.868527,42.868527 0 0 1 25.34278,-7.8069 c 15.2336,0.14116 30.46614,-0.27883 45.68902,1.0208 13.94935,1.19092 30.31373,14.15391 34.92741,27.06788 6.47626,18.12692 3.91224,40.25089 3.62481,59.15246 -0.24536,16.13174 -13.57653,34.48771 -30.10811,38.95569 A 79.199119,79.199119 0 0 1 441.74,491.84431 c -8.56238,0.0181 -17.1478,-0.38936 -25.68093,0.11031 a 54.649855,54.649855 0 0 1 -26.32682,-5.16593 c -9.25046,-4.25452 -15.59371,-11.71596 -20.41575,-20.75663 -6.72439,-12.60728 -3.18652,-26.10023 -4.40012,-38.8921 z"
     id="path8"
     inkscape:connector-curvature="0"
     style="fill:#ffffff;stroke-width:1.07096756" />
  <path
     d="m 429.26019,235.88971 c -5.88876,0 -11.78856,-0.23145 -17.66387,0.0495 -11.29618,0.54011 -21.3149,-3.15663 -30.13828,-9.64942 a 38.548972,38.548972 0 0 1 -10.63221,-12.6531 49.552339,49.552339 0 0 1 -5.86554,-26.54232 c 0.4708,-12.11607 -0.0309,-24.2665 0.15106,-36.39814 0.2179,-14.53239 6.93524,-26.25191 18.13801,-34.65101 a 37.550049,37.550049 0 0 1 22.68165,-7.74838 c 17.46166,0.19628 35.08522,-1.97348 52.34148,1.14258 14.00875,2.52962 24.24999,10.94056 30.37945,24.37252 3.69014,8.08654 4.1916,16.33276 4.1462,24.85543 -0.0637,11.95435 0.255,23.92309 -0.22983,35.85966 -0.55728,13.71985 -6.88944,24.54305 -18.01881,32.65429 a 44.429334,44.429334 0 0 1 -28.69509,8.74464 c -5.52421,-0.20567 -11.06236,-0.0362 -16.59422,-0.0362 z"
     id="path10"
     inkscape:connector-curvature="0"
     style="fill:#ffffff;stroke-width:1.07096756" />
</svg>
